<svg width="131" height="116" viewBox="0 0 131 116" fill="none" xmlns="http://www.w3.org/2000/svg">
<path d="M116.227 14.8408C109.891 8.52737 101.502 5.07668 92.5499 5.07668C83.5974 5.07668 75.1836 8.55293 68.8476 14.8664L65.5385 18.1637L62.1781 14.8153C55.8421 8.50181 47.4026 5 38.4501 5C29.5233 5 21.1095 8.47625 14.7991 14.7642C8.46314 21.0776 4.97449 29.4615 5.00014 38.3822C5.00014 47.3029 8.51444 55.6612 14.8504 61.9747L63.0246 109.978C63.6915 110.642 64.5894 111 65.4615 111C66.3337 111 67.2315 110.668 67.8985 110.003L116.175 62.0769C122.511 55.7634 126 47.3796 126 38.4589C126.026 29.5382 122.563 21.1543 116.227 14.8408ZM111.301 57.1948L65.4615 102.693L19.7243 57.1182C14.6965 52.1083 11.9261 45.4625 11.9261 38.3822C11.9261 31.3019 14.6709 24.6561 19.6986 19.6718C24.7008 14.6875 31.3702 11.9269 38.4501 11.9269C45.5557 11.9269 52.2508 14.6875 57.2786 19.6974L63.0759 25.4741C64.4355 26.8288 66.6159 26.8288 67.9754 25.4741L73.7214 19.7485C78.7492 14.7386 85.4443 11.9781 92.5242 11.9781C99.6041 11.9781 106.274 14.7386 111.301 19.7229C116.329 24.7328 119.074 31.3786 119.074 38.4589C119.1 45.5392 116.329 52.185 111.301 57.1948Z" fill="white" stroke="white" stroke-width="9"/>
</svg>
