<svg width="328" height="112" viewBox="0 0 328 112" fill="none" xmlns="http://www.w3.org/2000/svg">
<path d="M161.208 47.536C161.208 50.1387 160.611 52.528 159.416 54.704C158.221 56.8373 156.387 58.5653 153.912 59.888C151.437 61.2107 148.365 61.872 144.696 61.872H137.912V78H126.968V33.072H144.696C148.28 33.072 151.309 33.6907 153.784 34.928C156.259 36.1653 158.115 37.872 159.352 40.048C160.589 42.224 161.208 44.72 161.208 47.536ZM143.864 53.168C145.955 53.168 147.512 52.6773 148.536 51.696C149.56 50.7147 150.072 49.328 150.072 47.536C150.072 45.744 149.56 44.3573 148.536 43.376C147.512 42.3947 145.955 41.904 143.864 41.904H137.912V53.168H143.864ZM177.85 30.64V78H166.906V30.64H177.85ZM183.605 60.08C183.605 56.4107 184.287 53.1893 185.653 50.416C187.061 47.6427 188.959 45.5093 191.349 44.016C193.738 42.5227 196.405 41.776 199.349 41.776C201.866 41.776 204.063 42.288 205.941 43.312C207.861 44.336 209.333 45.68 210.357 47.344V42.288H221.301V78H210.357V72.944C209.29 74.608 207.797 75.952 205.877 76.976C203.999 78 201.802 78.512 199.285 78.512C196.383 78.512 193.738 77.7653 191.349 76.272C188.959 74.736 187.061 72.5813 185.653 69.808C184.287 66.992 183.605 63.7493 183.605 60.08ZM210.357 60.144C210.357 57.4133 209.589 55.2587 208.053 53.68C206.559 52.1013 204.725 51.312 202.549 51.312C200.373 51.312 198.517 52.1013 196.981 53.68C195.487 55.216 194.741 57.3493 194.741 60.08C194.741 62.8107 195.487 64.9867 196.981 66.608C198.517 68.1867 200.373 68.976 202.549 68.976C204.725 68.976 206.559 68.1867 208.053 66.608C209.589 65.0293 210.357 62.8747 210.357 60.144ZM265.698 42.288L243.298 94.96H231.522L239.714 76.784L225.186 42.288H237.41L245.666 64.624L253.858 42.288H265.698Z" fill="#801336"/>
<path d="M280.6 33.072V78H269.656V33.072H280.6ZM310.291 41.904C314.472 41.904 317.8 43.2693 320.275 46C322.792 48.688 324.051 52.4 324.051 57.136V78H313.171V58.608C313.171 56.2187 312.552 54.3627 311.315 53.04C310.077 51.7173 308.413 51.056 306.323 51.056C304.232 51.056 302.568 51.7173 301.331 53.04C300.093 54.3627 299.475 56.2187 299.475 58.608V78H288.531V42.288H299.475V47.024C300.584 45.4453 302.077 44.208 303.955 43.312C305.832 42.3733 307.944 41.904 310.291 41.904Z" fill="#EE4540"/>
<path d="M6 34C2.68629 34 0 31.3137 0 28C0 24.6863 2.68629 22 6 22V34ZM22.5 28V22C24.0913 22 25.6174 22.6321 26.7426 23.7574L22.5 28ZM81 86.5V92.5C79.4087 92.5 77.8826 91.8679 76.7574 90.7426L81 86.5ZM98.5 80.5C101.814 80.5 104.5 83.1863 104.5 86.5C104.5 89.8137 101.814 92.5 98.5 92.5V80.5ZM6 22H22.5V34H6V22ZM81 80.5H98.5V92.5H81V80.5ZM26.7426 23.7574L43.7426 40.7574L35.2574 49.2426L18.2574 32.2426L26.7426 23.7574ZM76.7574 90.7426L59.2574 73.2426L67.7426 64.7574L85.2426 82.2574L76.7574 90.7426Z" fill="#C72C41"/>
<path d="M104.5 51.6699C107.833 53.5944 107.833 58.4056 104.5 60.3301L35.5 100.167C32.1667 102.092 28 99.6862 28 95.8372L28 16.1628C28 12.3138 32.1667 9.90821 35.5 11.8327L104.5 51.6699Z" fill="#801336"/>
<path d="M6 86H22.5L81 27.5H98.5" stroke="#EE4540" stroke-width="12" stroke-linecap="round" stroke-linejoin="round"/>
</svg>
