<svg width="133" height="110" viewBox="0 0 133 110" fill="none" xmlns="http://www.w3.org/2000/svg">
<path d="M9 84H25.5L84 25.5H101.5" stroke="#EE4540" stroke-width="18" stroke-linecap="round" stroke-linejoin="round"/>
<path d="M9 35C4.02944 35 0 30.9706 0 26C0 21.0294 4.02944 17 9 17V35ZM25.5 26V17C27.8869 17 30.1761 17.9482 31.864 19.636L25.5 26ZM84 84.5V93.5C81.6131 93.5 79.3239 92.5518 77.636 90.864L84 84.5ZM101.5 75.5C106.471 75.5 110.5 79.5294 110.5 84.5C110.5 89.4706 106.471 93.5 101.5 93.5V75.5ZM9 17H25.5V35H9V17ZM84 75.5H101.5V93.5H84V75.5ZM31.864 19.636L48.864 36.636L36.136 49.364L19.136 32.364L31.864 19.636ZM77.636 90.864L60.136 73.364L72.864 60.636L90.364 78.136L77.636 90.864Z" fill="#EE4540"/>
<path d="M125.5 80.1699C128.833 82.0944 128.833 86.9057 125.5 88.8302L102.25 102.254C98.9167 104.178 94.75 101.772 94.75 97.9234L94.75 71.0766C94.75 67.2276 98.9167 64.822 102.25 66.7465L125.5 80.1699Z" fill="#EE4540"/>
<path d="M125.5 21.1699C128.833 23.0944 128.833 27.9056 125.5 29.8301L102.25 43.2535C98.9167 45.178 94.75 42.7724 94.75 38.9234L94.75 12.0766C94.75 8.22762 98.9167 5.82198 102.25 7.74648L125.5 21.1699Z" fill="#EE4540"/>
</svg>
