<svg width="104" height="112" viewBox="0 0 104 112" fill="none" xmlns="http://www.w3.org/2000/svg">
<path d="M81.6193 69.2465C75.3193 69.2465 69.6793 72.1193 65.9371 76.6225L41.594 62.8068C42.351 60.6774 42.7671 58.3878 42.7671 56.0017C42.7671 53.616 42.351 51.3264 41.594 49.197L65.9352 35.378C69.677 39.8826 75.3179 42.7564 81.6184 42.7564C92.8565 42.7564 102 33.6136 102 22.3751C102 11.1399 92.8574 2 81.6193 2C70.3798 2 61.2358 11.1399 61.2358 22.3746C61.2358 24.7607 61.6514 27.0508 62.4088 29.1807L38.0662 43.0002C34.3245 38.498 28.685 35.6261 22.3864 35.6261C11.1454 35.6261 2 44.766 2 56.0012C2 67.2359 11.1454 76.3758 22.3864 76.3758C28.685 76.3758 34.324 73.5039 38.0658 69.0022L62.4088 82.8183C61.6514 84.9482 61.2353 87.2388 61.2353 89.6254C61.2353 100.86 70.3793 110 81.6188 110C92.857 110 102 100.86 102 89.6254C102 78.3888 92.8574 69.2465 81.6193 69.2465ZM81.6193 9.12981C88.9245 9.12981 94.8679 15.0713 94.8679 22.3746C94.8679 29.6817 88.9245 35.6261 81.6193 35.6261C74.3127 35.6261 68.3684 29.6817 68.3684 22.3746C68.3684 15.0713 74.3127 9.12981 81.6193 9.12981ZM22.3869 69.2465C15.0788 69.2465 9.13308 63.3045 9.13308 56.0017C9.13308 48.6979 15.0788 42.7564 22.3869 42.7564C29.6921 42.7564 35.635 48.6979 35.635 56.0017C35.635 63.3045 29.6916 69.2465 22.3869 69.2465ZM81.6193 102.871C74.3127 102.871 68.3684 96.9287 68.3684 89.6259C68.3684 82.3202 74.3127 76.3763 81.6193 76.3763C88.9245 76.3763 94.8679 82.3202 94.8679 89.6259C94.8679 96.9287 88.9245 102.871 81.6193 102.871Z" fill="white" stroke="white" stroke-width="4"/>
</svg>
